<svg xmlns="http://www.w3.org/2000/svg" width="126.411" height="42.415" viewBox="0 0 126.411 42.415">
    <defs>
        <style>
            .cls-1{fill:#1e1e1e}.cls-2{fill:#ffc600}.cls-3{fill:#9e9e9e}
        </style>
    </defs>
    <g id="Group_4429" transform="translate(-181 -785.525)">
        <path id="Path_31980" d="M186.652 799.658h5.239l.925 2.4h4.806l-6.022-13.783h-4.569L181 802.061h4.727z" class="cls-1" transform="translate(0 -2.306)"/>
        <g id="Group_4428" transform="translate(181.555 785.525)">
            <path id="Path_31981" d="M302.192 791.505a6.37 6.37 0 0 0-2.737-2.393 9.379 9.379 0 0 0-4.067-.837h-6.794v13.786h6.794a9.376 9.376 0 0 0 4.067-.837 6.367 6.367 0 0 0 2.737-2.393 7.368 7.368 0 0 0 0-7.326" class="cls-1" transform="translate(-271.778 -787.831)"/>
            <path id="Path_31982" d="M391.41 797.006a3.627 3.627 0 0 1-1.378.187 8.614 8.614 0 0 1-2.344-.344 9.531 9.531 0 0 1-2.206-.916l-1.5 3.388a8.951 8.951 0 0 0 2.669 1.034 14.46 14.46 0 0 0 3.338.384 8.913 8.913 0 0 0 3.515-.621 4.909 4.909 0 0 0 2.176-1.674 4.043 4.043 0 0 0 .729-2.353 3.356 3.356 0 0 0-.8-2.364 4.627 4.627 0 0 0-1.88-1.25 18.014 18.014 0 0 0-2.659-.679 11.323 11.323 0 0 1-1.753-.443q-.532-.207-.532-.621 0-.866 1.792-.866a8.549 8.549 0 0 1 3.84 1.024l1.4-3.368a8.736 8.736 0 0 0-2.412-.9 12.762 12.762 0 0 0-2.787-.306 9.042 9.042 0 0 0-3.515.611 4.809 4.809 0 0 0-2.176 1.674 4.087 4.087 0 0 0-.729 2.363 3.418 3.418 0 0 0 .788 2.373 4.53 4.53 0 0 0 1.851 1.26 20.157 20.157 0 0 0 2.658.719 11.7 11.7 0 0 1 1.782.473q.542.217.542.65a.6.6 0 0 1-.414.561" class="cls-1" transform="translate(-351.77 -786.193)"/>
            <path id="Path_31983" d="M184.44 901.075h4.91v-4.66h6.075v-3.7h-6.075v-2.5h6.928v-3.7H184.44z" class="cls-1" transform="translate(-184.44 -870.208)"/>
            <path id="Path_31984" d="M275.624 885.425a9.608 9.608 0 0 0-8.447 0 7.466 7.466 0 0 0 0 13.274 9.608 9.608 0 0 0 8.447 0 7.466 7.466 0 0 0 0-13.274" class="cls-1" transform="translate(-250.47 -868.477)"/>
            <path id="Path_31985" d="M386.973 896.58a4.992 4.992 0 0 0 2.039-1.852 5.148 5.148 0 0 0 .707-2.726 5.038 5.038 0 0 0-3.121-4.827 8.6 8.6 0 0 0-3.516-.666h-7.012v14.564h4.91v-3.662h1.331l2.476 3.662h5.243z" class="cls-1" transform="translate(-345.133 -870.207)"/>
            <path id="Path_31986" d="M504.625 797.5h5.235v22.77h10.294v-30.533h-9.939z" class="cls-2" transform="translate(-452.933 -789.057)"/>
            <path id="Path_31987" d="M635.551 787.373a14.137 14.137 0 0 0-13.977 0 12.556 12.556 0 0 0-4.757 5.353 21.113 21.113 0 0 0 0 16.694 12.555 12.555 0 0 0 4.757 5.353 14.137 14.137 0 0 0 13.977 0 12.548 12.548 0 0 0 4.757-5.353 21.1 21.1 0 0 0 0-16.694 12.55 12.55 0 0 0-4.757-5.353" class="cls-2" transform="translate(-545.57 -785.525)"/>
            <path id="Path_31988" d="M822.39 792.726a12.55 12.55 0 0 0-4.757-5.353 14.137 14.137 0 0 0-13.977 0 12.557 12.557 0 0 0-4.757 5.353 21.112 21.112 0 0 0 0 16.694 12.555 12.555 0 0 0 4.757 5.353 14.137 14.137 0 0 0 13.977 0 12.548 12.548 0 0 0 4.757-5.353 21.1 21.1 0 0 0 0-16.694" class="cls-2" transform="translate(-698.256 -785.525)"/>
            <path id="Rectangle_2425" d="M0 0H2.58V2.347H0z" class="cls-3" transform="translate(89.391 39.81)"/>
            <path id="Path_31989" d="M762.326 998.7a5.313 5.313 0 0 1-2.561-.614 4.473 4.473 0 0 1-1.777-1.7 5.022 5.022 0 0 1 0-4.9 4.472 4.472 0 0 1 1.777-1.7 5.31 5.31 0 0 1 2.561-.613 4.815 4.815 0 0 1 3.24 1.129 4.518 4.518 0 0 1 1.561 2.96h-3.064a1.97 1.97 0 0 0-.667-.972 1.677 1.677 0 0 0-1.057-.368 1.654 1.654 0 0 0-1.3.557 2.4 2.4 0 0 0 0 2.919 1.655 1.655 0 0 0 1.3.557 1.629 1.629 0 0 0 1.095-.406 1.9 1.9 0 0 0 .617-1.066h3.108a4.6 4.6 0 0 1-1.548 3.058 4.8 4.8 0 0 1-3.284 1.17" class="cls-3" transform="translate(-664.856 -956.289)"/>
            <path id="Path_31990" d="M826.569 998.7a6.19 6.19 0 0 1-2.108-.346 4.722 4.722 0 0 1-1.633-.966 4.262 4.262 0 0 1-1.041-1.507 5.31 5.31 0 0 1 0-3.9 4.264 4.264 0 0 1 1.041-1.507 4.726 4.726 0 0 1 1.633-.966 6.19 6.19 0 0 1 2.108-.346 5.92 5.92 0 0 1 2.705.591 4.315 4.315 0 0 1 1.812 1.677 5.194 5.194 0 0 1 0 5 4.314 4.314 0 0 1-1.812 1.677 5.92 5.92 0 0 1-2.705.592m-1.419-3.309a2.1 2.1 0 0 0 2.841 0 2.236 2.236 0 0 0 0-2.916 2.107 2.107 0 0 0-2.841 0 2.244 2.244 0 0 0 0 2.916" class="cls-3" transform="translate(-718.58 -956.289)"/>
            <path id="Path_31991" d="M900.167 999.785h-2.995l-.528-4.555-2.1 4.555h-1.032l-2.1-4.549-.509 4.549H887.9l1.327-9.022h2.963l1.837 4.341 1.862-4.341h2.963z" class="cls-3" transform="translate(-774.329 -957.629)"/>
        </g>
    </g>
</svg>
